# xmcd CD database file
#
# Track frame offsets:
#	150
#	29695
#	53933
#	71109
#	89551
#	113033
#	144190
#	163883
#	180070
#	245814
#
# Disc length: 3600 seconds
#
# Revision: 1
# Processed by: cddbd v1.5.2PL0 Copyright (c) Steve Scherf et al.
# Submitted via: CDex 1.51
#
DISCID=8c0e0e0a
DTITLE=Stew Cutler - Trio/Live
DYEAR=2006
DGENRE=Jazz
TTITLE0=Left Behind
TTITLE1=Mourning Dance
TTITLE2=Spagetti Western
TTITLE3=East River Delta
TTITLE4=Ardells Theme
TTITLE5=Whisper
TTITLE6=Cole's Mountain
TTITLE7=Yippie-tai-yi-yo
TTITLE8=Burma/Change of Heart
TTITLE9=Cut 'n' the Dove
EXTD=YEAR: 2006
EXTT0=
EXTT1=
EXTT2=
EXTT3=
EXTT4=
EXTT5=
EXTT6=
EXTT7=
EXTT8=
EXTT9=
PLAYORDER=
